<svg width="21" height="14" viewBox="0 0 21 14" fill="none" xmlns="http://www.w3.org/2000/svg">
<path fill-rule="evenodd" clip-rule="evenodd" d="M21 0.913043C21 1.1552 20.9052 1.38743 20.7364 1.55866C20.5676 1.72989 20.3387 1.82609 20.1 1.82609H0.9C0.661305 1.82609 0.432387 1.72989 0.263604 1.55866C0.094821 1.38743 0 1.1552 0 0.913043C0 0.670889 0.094821 0.438653 0.263604 0.267424C0.432387 0.0961953 0.661305 0 0.9 0H20.1C20.3387 0 20.5676 0.0961953 20.7364 0.267424C20.9052 0.438653 21 0.670889 21 0.913043ZM21 7C21 7.24215 20.9052 7.47439 20.7364 7.64562C20.5676 7.81685 20.3387 7.91304 20.1 7.91304H0.9C0.661305 7.91304 0.432387 7.81685 0.263604 7.64562C0.094821 7.47439 0 7.24215 0 7C0 6.75785 0.094821 6.52561 0.263604 6.35438C0.432387 6.18315 0.661305 6.08696 0.9 6.08696H20.1C20.3387 6.08696 20.5676 6.18315 20.7364 6.35438C20.9052 6.52561 21 6.75785 21 7ZM21 13.087C21 13.3291 20.9052 13.5613 20.7364 13.7326C20.5676 13.9038 20.3387 14 20.1 14H0.9C0.661305 14 0.432387 13.9038 0.263604 13.7326C0.094821 13.5613 0 13.3291 0 13.087C0 12.8448 0.094821 12.6126 0.263604 12.4413C0.432387 12.2701 0.661305 12.1739 0.9 12.1739H20.1C20.3387 12.1739 20.5676 12.2701 20.7364 12.4413C20.9052 12.6126 21 12.8448 21 13.087Z" fill="#333333"/>
</svg>
