<svg width="50" height="50" viewBox="0 0 50 50" fill="none" xmlns="http://www.w3.org/2000/svg">
<path d="M18.6249 43.2084C15.5356 43.2204 12.557 42.0587 10.2916 39.9584C9.18828 38.9382 8.30794 37.7009 7.70586 36.3242C7.10378 34.9474 6.79297 33.461 6.79297 31.9584C6.79297 30.4557 7.10378 28.9694 7.70586 27.5926C8.30794 26.2159 9.18828 24.9785 10.2916 23.9584L26.0416 9.08339C27.6614 7.60479 29.7754 6.78503 31.9686 6.78503C34.1619 6.78503 36.2759 7.60479 37.8957 9.08339C38.7403 9.86743 39.4175 10.8143 39.8865 11.8669C40.3555 12.9195 40.6067 14.0561 40.6249 15.2084C40.6306 16.2042 40.4299 17.1903 40.0354 18.1047C39.641 19.019 39.0614 19.8417 38.3332 20.5209L22.5624 35.4167C21.6108 36.2997 20.3606 36.7903 19.0624 36.7903C17.7642 36.7903 16.514 36.2997 15.5624 35.4167C15.0902 34.9816 14.7133 34.4534 14.4555 33.8653C14.1977 33.2773 14.0646 32.6421 14.0646 32.0001C14.0646 31.358 14.1977 30.7228 14.4555 30.1348C14.7133 29.5467 15.0902 29.0185 15.5624 28.5834L30.1457 14.8542C30.4387 14.5616 30.8358 14.3973 31.2499 14.3973C31.664 14.3973 32.0611 14.5616 32.3541 14.8542C32.6467 15.1472 32.811 15.5443 32.811 15.9584C32.811 16.3725 32.6467 16.7696 32.3541 17.0626L17.7707 30.7917C17.6072 30.9345 17.476 31.1106 17.3862 31.3082C17.2964 31.5059 17.2499 31.7205 17.2499 31.9376C17.2499 32.1547 17.2964 32.3692 17.3862 32.5669C17.476 32.7645 17.6072 32.9406 17.7707 33.0834C18.1481 33.4062 18.6283 33.5835 19.1249 33.5835C19.6215 33.5835 20.1017 33.4062 20.4791 33.0834L36.2499 18.2292C36.6511 17.836 36.9687 17.3657 37.1835 16.8465C37.3984 16.3274 37.506 15.7702 37.4999 15.2084C37.4826 14.4843 37.3187 13.7712 37.0179 13.1123C36.7171 12.4534 36.2857 11.8624 35.7499 11.3751C34.7214 10.4218 33.3709 9.89221 31.9686 9.89221C30.5664 9.89221 29.2158 10.4218 28.1874 11.3751L12.4999 26.2292C11.7055 26.9572 11.0711 27.8425 10.6371 28.8288C10.2032 29.8151 9.97906 30.8808 9.97906 31.9584C9.97906 33.0359 10.2032 34.1017 10.6371 35.088C11.0711 36.0743 11.7055 36.9596 12.4999 37.6876C14.1968 39.2692 16.4302 40.1486 18.7499 40.1486C21.0696 40.1486 23.303 39.2692 24.9999 37.6876L40.6041 22.9167C40.7477 22.7693 40.9194 22.6522 41.109 22.5722C41.2987 22.4922 41.5024 22.451 41.7082 22.451C41.914 22.451 42.1178 22.4922 42.3074 22.5722C42.4971 22.6522 42.6688 22.7693 42.8124 22.9167C43.105 23.2097 43.2694 23.6068 43.2694 24.0209C43.2694 24.435 43.105 24.8321 42.8124 25.1251L27.0832 39.9584C24.7874 42.0904 21.7576 43.2545 18.6249 43.2084Z" fill="#333333"/>
</svg>
